# xmcd
#
# Track frame offsets:
#	150
#	13581
#	26301
#	35633
#	47544
#	60580
#	75565
#	89599
#	106020
#	118415
#	128993
#	138141
#	149672
#	163285
#	173039
#	181660
#	195005
#	206205
#	218903
#	231390
#
# Disc length: 3257 seconds
#
# Revision: 0
# Processed by: cddbd v1.5.2PL0 Copyright (c) Steve Scherf et al.
# Submitted via: EasyCDDAExtractor 10.0.1.1
#
DISCID=160cb714
DTITLE=Various Artist - Yesterday once more - My Girl
DYEAR=2008
DGENRE=Oldies
TTITLE0=The Temptation - My girl
TTITLE1=Johnny Maestro and The Brooklyn Bridge - 16 candles
TTITLE2=johnny Tillotson - Why do I love you so
TTITLE3=Neil Sedaka - Calender girl
TTITLE4=Tommy Roe - Dizzy
TTITLE5=Bay City Rollers - Give a little love
TTITLE6=James Taylor - Somthing in the way she moves
TTITLE7=The Carpenters - (They long to be) Close to you
TTITLE8=Bobby Vee - Come back when you grow up
TTITLE9=The Mamas and The Papas - You Baby
TTITLE10=The Everly Brothers - Wake up little Suzie
TTITLE11=Sandy Posey - A single girl
TTITLE12=The Lovin' Spoonful - She's still a mystery
TTITLE13=Freddie and the Dreamers - I'm telling you now
TTITLE14=Jan and Dean - Clementine
TTITLE15=Ray Peterson - Tell Laura I love her
TTITLE16=The Beach Boys - Surfer girl
TTITLE17=The Monkees - (I'll be true to you) Yes I will
TTITLE18=Nino Tempo and April Stevens - Deep purple
TTITLE19=The Crew-Cuts - Earth angel
EXTD=
EXTT0=
EXTT1=
EXTT2=
EXTT3=
EXTT4=
EXTT5=
EXTT6=
EXTT7=
EXTT8=
EXTT9=
EXTT10=
EXTT11=
EXTT12=
EXTT13=
EXTT14=
EXTT15=
EXTT16=
EXTT17=
EXTT18=
EXTT19=
PLAYORDER=
